# xmcd
#
# Track frame offsets:
#	150
#	13634
#	33638
#	50770
#	66693
#	80122
#	90534
#	104408
#	123942
#	141170
#	157634
#	176282
#	197818
#	232167
#
# Disc length: 3264 seconds
#
# Revision: 1
# Processed by: cddbd v1.5.1PL2 Copyright (c) Steve Scherf et al.
# Submitted via: audiograbber 1.83.01
#
DISCID=c20cbe0e
DTITLE=DeHeleboel - Opnoame
DYEAR=1900
DGENRE=
TTITLE0=Op Fietse Deur Grunnen
TTITLE1=Winschoterdaip
TTITLE2=Eppo Koekoek
TTITLE3=Broezen
TTITLE4=Winkeln in Winschoten
TTITLE5=Broodje Shoarma
TTITLE6=In Veendam
TTITLE7=Miss Scheemda
TTITLE8=Martin Martini
TTITLE9=Rust
TTITLE10=Wie Goan Noar Schiermonikoog
TTITLE11=Hoop
TTITLE12=Zundapp Boy
TTITLE13=Oude Dagen
EXTD=
EXTT0=
EXTT1=
EXTT2=
EXTT3=
EXTT4=
EXTT5=
EXTT6=
EXTT7=
EXTT8=
EXTT9=
EXTT10=
EXTT11=
EXTT12=
EXTT13=
PLAYORDER=
